HIERARCHY
ROOT Hips
{
  OFFSET 1.44925e-005 102.336 -0.101585
  CHANNELS 6 Xposition Yposition Zposition Zrotation Xrotation Yrotation
  JOINT RightUpLeg
  {
    OFFSET -8.9458 -8.66707 0.101652
    CHANNELS 3 Zrotation Xrotation Yrotation
    JOINT RightLeg
    {
      OFFSET 0 -44.4227 1.3727
      CHANNELS 3 Zrotation Xrotation Yrotation
      JOINT RightFoot
      {
        OFFSET 0.253549 -42.0924 -1.46059
        CHANNELS 3 Zrotation Xrotation Yrotation
        JOINT RightToes
        {
          OFFSET 0.04 -4.41509 8.4991
          CHANNELS 3 Zrotation Xrotation Yrotation
          End Site
          {
            OFFSET -0.08 -0.137448 9.77979
          }
        }
      }
    }
  }
  JOINT Spine
  {
    OFFSET 0 11.8905 0
    CHANNELS 3 Zrotation Xrotation Yrotation
    JOINT Spine1
    {
      OFFSET 0 25.6574 0.127663
      CHANNELS 3 Zrotation Xrotation Yrotation
      JOINT HEad
      {
        OFFSET 0 8.73416 0.011341
        CHANNELS 3 Zrotation Xrotation Yrotation
        End Site
        {
          OFFSET -0.29 12.7742 2.51395
        }
      }
      JOINT LeftShoulder1
      {
        OFFSET 8.99 -0.362252 -0.22
        CHANNELS 3 Zrotation Xrotation Yrotation
        JOINT LeftArm
        {
          OFFSET 10.2827 -0.00337999 0.322123
          CHANNELS 3 Zrotation Xrotation Yrotation
          JOINT LeftForeArm
          {
            OFFSET 26.2597 0.099144 -1.42434
            CHANNELS 3 Zrotation Xrotation Yrotation
            JOINT LeftHand
            {
              OFFSET 22.0902 0.085362 1.02216
              CHANNELS 3 Zrotation Xrotation Yrotation
              End Site
              {
                OFFSET 13.419 -0.6 1.50291
              }
            }
          }
        }
      }
      JOINT RightShoulder
      {
        OFFSET -8.99 -0.362252 -0.22
        CHANNELS 3 Zrotation Xrotation Yrotation
        JOINT RightArm
        {
          OFFSET -10.2827 -0.00338 0.322123
          CHANNELS 3 Zrotation Xrotation Yrotation
          JOINT RightForeArm
          {
            OFFSET -26.364 0.099144 -1.42434
            CHANNELS 3 Zrotation Xrotation Yrotation
            JOINT RightHand
            {
              OFFSET -22.0324 0.085362 1.02216
              CHANNELS 3 Zrotation Xrotation Yrotation
              End Site
              {
                OFFSET -13.3284 -0.6 1.50291
              }
            }
          }
        }
      }
    }
  }
  JOINT LeftUpLeg
  {
    OFFSET 8.9458 -8.66707 0.101652
    CHANNELS 3 Zrotation Xrotation Yrotation
    JOINT LeftLeg
    {
      OFFSET 0 -44.4227 1.3727
      CHANNELS 3 Zrotation Xrotation Yrotation
      JOINT LeftFoot
      {
        OFFSET -0.253549 -42.0924 -1.46059
        CHANNELS 3 Zrotation Xrotation Yrotation
        JOINT LeftToes
        {
          OFFSET -0.04 -4.41509 8.4991
          CHANNELS 3 Zrotation Xrotation Yrotation
          End Site
          {
            OFFSET 0.08 -0.047448 9.77979
          }
        }
      }
    }
  }
}
MOTION
Frames:	8
Frame Time:	0.0333333
-9.25359 105.958 24.4826 1.34686 5.51154 177.482 -9.85161 7.19993 -8.06614 0.393321 8.85281 -7.08759 11.309 -7.48255 -0.186135 0.0462048 0.000530889 0.662642 0.759687 -3.19539 0.898189 0.518929 7.65662 0.576885 -2.81282 -7.3833 -0.363535 -28.01 1.76034 -1.65402 -46.1543 -20.6823 -18.9171 -11.3251 43.7686 0.80486 4.19766 9.68898 -1.43138 37.2883 5.137 7.79604 26.3586 -36.3764 -3.92351 5.19325 23.5458 6.84559 -15.0564 9.19352 0.287837 12.6101 5.32389 8.7548 -2.98299 12.3597 5.98045 -11.7071 -7.43156 0.0544838 -1.29846e-009 8.75235e-006 -1.46902e-008 
-9.26724 105.958 24.4718 1.3225 5.49333 177.494 -9.88571 7.19555 -8.09616 0.404002 8.83575 -7.08968 11.255 -7.47143 -0.18613 0.0462048 0.000530889 0.662642 0.788402 -3.16077 0.884262 0.475287 7.53786 0.576185 -2.76551 -7.3603 -0.376367 -28.0184 1.76595 -1.66919 -46.1348 -20.6486 -18.8553 -11.3734 43.3365 0.870299 4.23166 9.69043 -1.45452 37.2757 5.14218 7.81128 26.3895 -36.3193 -3.92036 5.23209 23.4974 6.79462 -15.0963 9.19152 0.2879 12.5736 5.32575 8.73681 -2.99131 12.3188 6.00276 -11.6746 -7.3945 0.0544793 -1.29846e-009 8.75235e-006 -1.46902e-008 
-9.28747 105.958 24.4539 1.28576 5.44559 177.531 -9.92925 7.16557 -8.12743 0.405976 8.82652 -7.10541 11.2089 -7.46422 -0.186127 0.0462048 0.000530889 0.662642 0.854659 -3.12367 0.853222 0.382177 7.33384 0.570698 -2.71688 -7.23575 -0.394679 -28.0287 1.77433 -1.69217 -46.098 -20.5902 -18.759 -11.4659 42.7217 0.997052 4.08647 9.70045 -1.36612 37.2583 5.15216 7.83878 26.4455 -36.2488 -3.94748 5.2827 23.3676 6.7358 -15.2339 9.17276 0.384298 12.5223 5.29519 8.71085 -2.99991 12.2728 6.02116 -11.6419 -7.35797 0.0544748 -1.29846e-009 8.75235e-006 -1.46902e-008 
-9.30101 105.958 24.4403 1.255 5.4003 177.575 -9.95943 7.12894 -8.14015 0.394818 8.83987 -7.1367 11.2388 -7.47419 -0.186131 0.0462048 0.000530889 0.662642 0.898607 -3.0842 0.818458 0.325514 7.15529 0.552645 -2.75482 -7.06039 -0.404816 -28.0556 1.77707 -1.69597 -46.0612 -20.548 -18.7099 -11.553 42.4321 1.11976 3.87817 9.71735 -1.17593 37.2166 5.15098 7.84732 26.5334 -36.2228 -3.95151 5.30808 23.224 6.71783 -15.3871 9.15303 0.480522 12.4858 5.25088 8.69154 -3.00248 12.2531 6.0231 -11.6466 -7.35054 0.0544738 -1.29846e-009 8.75235e-006 -1.46902e-008 
-9.30654 105.958 24.4339 1.23488 5.40132 177.598 -9.98088 7.13086 -8.14592 0.381658 8.86019 -7.14995 11.3061 -7.49414 -0.18614 0.0462048 0.000530889 0.662642 0.892082 -2.99271 0.788672 0.336802 7.02409 0.523755 -2.83878 -6.96093 -0.436567 -28.069 1.77226 -1.68167 -46.0644 -20.546 -18.7021 -11.5833 42.5175 1.17327 3.90683 9.71747 -1.10491 37.1728 5.1416 7.83764 26.6031 -36.2402 -3.90282 5.3018 23.1905 6.7573 -15.3756 9.16549 0.385045 12.4648 5.25208 8.67972 -3.00118 12.2472 6.02528 -11.6779 -7.35766 0.0544747 -1.29846e-009 8.75235e-006 -1.46902e-008 
-9.31163 105.958 24.4306 1.22099 5.44304 177.595 -10.0022 7.17079 -8.15669 0.374334 8.87361 -7.13898 11.3323 -7.50731 -0.186074 0.0462048 0.000530889 0.662642 0.87055 -2.848 0.761966 0.361051 6.8871 0.494567 -2.84354 -6.95373 -0.524974 -28.0302 1.77138 -1.68336 -46.1085 -20.5618 -18.663 -11.5661 42.6682 1.16327 4.08037 9.70498 -1.21106 37.1645 5.14231 7.84151 26.5966 -36.2627 -3.86129 5.27879 23.3061 6.83565 -15.1445 9.20793 0.134408 12.4455 5.30046 8.66861 -2.99802 12.2449 6.02693 -11.6954 -7.36301 0.0544754 -1.29846e-009 8.75235e-006 -1.46902e-008 
-9.31754 105.958 24.427 1.21002 5.47868 177.586 -10.0202 7.19872 -8.16856 0.370462 8.89097 -7.12645 11.3081 -7.50835 -0.185761 0.0462048 0.000530889 0.662642 0.858643 -2.72128 0.737544 0.368601 6.73206 0.470928 -2.74224 -6.93538 -0.631674 -27.9756 1.78078 -1.71896 -46.1259 -20.5535 -18.5826 -11.5688 42.6876 1.15948 4.0555 9.70445 -1.28396 37.1681 5.15152 7.86164 26.5495 -36.2681 -3.87374 5.25638 23.4655 6.91187 -14.8351 9.24002 -0.00758103 12.425 5.33835 8.65732 -2.9963 12.2526 6.02855 -11.6838 -7.36939 0.0544762 -1.29846e-009 8.75235e-006 -1.46902e-008 
-9.3184 105.958 24.4229 1.20411 5.48863 177.584 -10.0284 7.19313 -8.17488 0.367871 8.92375 -7.12283 11.2836 -7.50997 -0.185408 0.0462048 0.000530889 0.662642 0.835695 -2.65335 0.720849 0.394927 6.59987 0.450948 -2.63485 -6.84093 -0.686029 -27.9717 1.79584 -1.76364 -46.0696 -20.5175 -18.5211 -11.6213 42.6238 1.19913 3.87851 9.71628 -1.2175 37.1332 5.14867 7.86454 26.5382 -36.2641 -3.91028 5.24497 23.5376 6.95791 -14.6363 9.23802 0.0881852 12.414 5.34754 8.65203 -2.99734 12.261 6.02937 -11.6671 -7.37759 0.0544772 -1.29846e-009 8.75235e-006 -1.46902e-008 
